<?xml version="1.0" encoding="UTF-8" standalone="no"?>
<svg
   xmlns:dc="http://purl.org/dc/elements/1.1/"
   xmlns:cc="http://creativecommons.org/ns#"
   xmlns:rdf="http://www.w3.org/1999/02/22-rdf-syntax-ns#"
   xmlns:svg="http://www.w3.org/2000/svg"
   xmlns="http://www.w3.org/2000/svg"
   xmlns:sodipodi="http://sodipodi.sourceforge.net/DTD/sodipodi-0.dtd"
   xmlns:inkscape="http://www.inkscape.org/namespaces/inkscape"
   width="48"
   height="48"
   viewBox="0 0 48 48"
   id="svg2"
   version="1.1"
   inkscape:version="0.48.5 r10040"
   sodipodi:docname="ic_no_image_48px.svg"
   inkscape:export-filename="/Users/sslater/Development/IdeaProjects/Citymaps/art/custom-material-design-icons-1.0.0/image/drawable-xxxhdpi/ic_no_image_grey600_24dp.png"
   inkscape:export-xdpi="180"
   inkscape:export-ydpi="180">
  <metadata
     id="metadata12">
    <rdf:RDF>
      <cc:Work
         rdf:about="">
        <dc:format>image/svg+xml</dc:format>
        <dc:type
           rdf:resource="http://purl.org/dc/dcmitype/StillImage" />
        <dc:title></dc:title>
      </cc:Work>
    </rdf:RDF>
  </metadata>
  <defs
     id="defs10" />
  <sodipodi:namedview
     pagecolor="#ffffff"
     bordercolor="#666666"
     borderopacity="1"
     objecttolerance="10"
     gridtolerance="10"
     guidetolerance="10"
     inkscape:pageopacity="0"
     inkscape:pageshadow="2"
     inkscape:window-width="1132"
     inkscape:window-height="813"
     id="namedview8"
     showgrid="false"
     inkscape:zoom="2.2982052"
     inkscape:cx="-68.305687"
     inkscape:cy="36.932212"
     inkscape:window-x="0"
     inkscape:window-y="0"
     inkscape:window-maximized="0"
     inkscape:current-layer="svg2" />
  <path
     d="M0 0h48v48h-48z"
     fill="none"
     id="path4" />
  <path
     d="M 6.5625 5.9375 L 4 8.53125 L 6 10.53125 L 6 38 C 6 40.21 7.79 42 10 42 L 37.4375 42 L 39.4375 44 L 42.03125 41.4375 L 41.09375 40.5 L 36.59375 36 L 27.0625 26.46875 L 8.65625 8.03125 L 7.5 6.875 L 6.5625 5.9375 z M 11.78125 6 L 42 36.25 L 42 10 C 42 7.79 40.21 6 38 6 L 11.78125 6 z M 17 27 L 22 33 L 24.8125 29.375 L 31.4375 36 L 10 36 L 17 27 z "
     id="path6"
     style="fill:#626262;fill-opacity:1" />
</svg>
