<?xml version="1.0" encoding="UTF-8" standalone="no"?>
<!-- Created with Inkscape (http://www.inkscape.org/) -->

<svg
   xmlns:dc="http://purl.org/dc/elements/1.1/"
   xmlns:cc="http://creativecommons.org/ns#"
   xmlns:rdf="http://www.w3.org/1999/02/22-rdf-syntax-ns#"
   xmlns:svg="http://www.w3.org/2000/svg"
   xmlns="http://www.w3.org/2000/svg"
   xmlns:sodipodi="http://sodipodi.sourceforge.net/DTD/sodipodi-0.dtd"
   xmlns:inkscape="http://www.inkscape.org/namespaces/inkscape"
   width="1024"
   height="800"
   id="svg2"
   version="1.1"
   inkscape:version="0.48.2 r9819"
   sodipodi:docname="Citymaps Logo Red.svg">
  <defs
     id="defs4" />
  <sodipodi:namedview
     id="base"
     pagecolor="#ffffff"
     bordercolor="#666666"
     borderopacity="1.0"
     inkscape:pageopacity="0.0"
     inkscape:pageshadow="2"
     inkscape:zoom="0.68"
     inkscape:cx="475.56973"
     inkscape:cy="482.96447"
     inkscape:document-units="px"
     inkscape:current-layer="g3172"
     showgrid="false"
     inkscape:window-width="1712"
     inkscape:window-height="952"
     inkscape:window-x="630"
     inkscape:window-y="171"
     inkscape:window-maximized="0" />
  <metadata
     id="metadata7">
    <rdf:RDF>
      <cc:Work
         rdf:about="">
        <dc:format>image/svg+xml</dc:format>
        <dc:type
           rdf:resource="http://purl.org/dc/dcmitype/StillImage" />
        <dc:title></dc:title>
      </cc:Work>
    </rdf:RDF>
  </metadata>
  <g
     inkscape:label="Layer 1"
     inkscape:groupmode="layer"
     id="layer1"
     transform="translate(0,-252.36218)">
    <g
       transform="matrix(1.25,0,0,-1.25,211.28475,658.51143)"
       inkscape:label="citymaps-logo-red"
       id="g3012">
      <g
         id="g3172"
         transform="translate(-164.33697,-217.46703)">
        <path
           id="path3016"
           style="fill:#ffffff;fill-opacity:1;fill-rule:nonzero;stroke:none"
           d="m 293.37833,206.68233 223.05604,0 0,241.79927 -223.05604,0 0,-241.79927 z"
           inkscape:connector-curvature="0" />
        <path
           id="path3018"
           style="fill:#2e2d2f;fill-opacity:1;fill-rule:nonzero;stroke:none"
           d="m 51.011212,34.278329 c -4.799531,0 -8.82222,-1.09322 -12.070695,-3.29808 -3.263486,-2.19208 -5.905124,-5.02507 -7.950018,-8.49977 -2.049398,-3.47583 -3.487495,-7.29623 -4.339244,-11.48115 -0.851711,-4.1804047 -1.278297,-8.3039477 -1.278297,-12.4241007 0,-3.96425 0.426586,-8.012477 1.278297,-12.1107893 0.851749,-4.120529 2.222406,-7.828706 4.126682,-11.162185 1.917485,-3.336116 4.487406,-6.066315 7.722745,-8.187586 3.25598,-2.126919 7.215246,-3.197911 11.878548,-3.197911 7.194981,0 12.739455,2.037294 16.628542,6.069328 3.874451,4.048226 6.312308,9.464566 7.304939,16.262197 l 29.017109,0 c -1.98489,-14.606001 -7.615682,-25.720737 -16.947915,-33.377346 -9.313469,-7.656609 -21.258068,-11.460738 -35.789887,-11.460738 -8.203749,0 -15.710968,1.362162 -22.567141,4.126103 -6.850431,2.765598 -12.670289,6.640222 -17.47132,11.596005 -4.801033,4.945615 -8.546536,10.876738 -11.22487622,17.743284 -2.69002288,6.872571 -4.01964948,14.413194 -4.01964948,22.6316593 0,8.497887 1.2226101,16.3943697 3.6883583,23.7022797 2.4774759,7.29358 6.1159852,13.60128 10.9140899,18.91745 4.7966035,5.3222 10.6692275,9.45854 17.5915245,12.44331 6.91044,2.96556 14.820715,4.46134 23.726624,4.46134 6.485315,0 12.728946,-0.85598 18.746656,-2.56677 5.991438,-1.68142 11.3569,-4.28961 16.084376,-7.76695 4.742488,-3.46717 8.574531,-7.78464 11.544544,-12.93738 2.976016,-5.17533 4.651666,-11.30791 5.087006,-18.40267 l -29.43818,0 c -1.986388,12.61276 -9.387776,18.92047 -22.242818,18.92047"
           inkscape:connector-curvature="0" />
        <path
           id="path3020"
           style="fill:#2e2d2f;fill-opacity:1;fill-rule:nonzero;stroke:none"
           d="m 136.83008,54.038189 0,-109.863975 -30.09341,0 0,109.863975 30.09341,0 z m -30.09341,17.02101 0,24.86477 30.09341,0 0,-24.86477 -30.09341,0"
           inkscape:connector-curvature="0" />
        <path
           id="path3022"
           style="fill:#2e2d2f;fill-opacity:1;fill-rule:nonzero;stroke:none"
           d="m 212.37664,54.038189 0,-20.17485 -22.03492,0 0,-54.412688 c 0,-5.106038 0.8504,-8.5009 2.54931,-10.214712 1.68317,-1.694607 5.081,-2.550947 10.1665,-2.550947 1.70342,0 3.32204,0.06929 4.87459,0.21352 1.55519,0.149878 3.03306,0.366035 4.44452,0.64282 l 0,-23.367118 c -2.54182,-0.441351 -5.36397,-0.71776 -8.47321,-0.864927 -3.10324,-0.151541 -6.14531,-0.217725 -9.11532,-0.217725 -4.64718,0 -9.06691,0.320846 -13.23483,0.960653 -4.16156,0.656001 -7.83522,1.885909 -10.99588,3.715708 -3.1843,1.844485 -5.71147,4.477903 -7.5455,7.874272 -1.81638,3.392226 -2.74709,7.850923 -2.74709,13.380236 l 0,64.840918 -18.216,0 0,20.17485 18.216,0 0,32.96123 30.07691,0 0,-32.96123 22.03492,0"
           inkscape:connector-curvature="0" />
        <path
           id="path3024"
           style="fill:#2e2d2f;fill-opacity:1;fill-rule:nonzero;stroke:none"
           d="m 256.64873,-88.569049 c -5.79216,-3.824629 -13.84016,-5.74577 -24.15452,-5.74577 -3.10662,0 -6.16895,0.102971 -9.20352,0.320681 -3.04319,0.225065 -6.10553,0.463368 -9.22227,0.756102 l 0,24.857175 c 2.82214,-0.285373 5.71711,-0.56487 8.68749,-0.844367 2.97714,-0.282435 5.93852,-0.360386 8.90104,-0.213295 3.9495,0.423652 6.87824,1.971167 8.78693,4.682236 1.91171,2.691939 2.85743,5.657501 2.85743,8.930501 0,2.38902 -0.4267,4.664687 -1.26659,6.785958 l -38.33958,103.078017 31.98299,0 24.79101,-75.221698 0.42069,0 23.93461,75.221698 31.1416,0 -45.7616,-123.476712 c -3.25148,-8.921688 -7.76505,-15.314724 -13.55571,-19.130526"
           inkscape:connector-curvature="0" />
        <path
           id="path3026"
           style="fill:#2e2d2f;fill-opacity:1;fill-rule:nonzero;stroke:none"
           d="m 344.76623,54.038189 0,-14.86734 0.4222,0 c 3.94613,5.67354 8.71225,10.0573 14.28862,13.18592 5.58838,3.10678 11.98475,4.67486 19.17148,4.67486 6.92778,0 13.23634,-1.35155 18.95946,-4.05087 5.72685,-2.6805 10.0614,-7.44045 13.02616,-14.2411 3.25748,4.81457 7.65958,9.07631 13.23258,12.74797 5.5805,3.68331 12.18929,5.544 19.83011,5.544 5.77564,0 11.14223,-0.72078 16.07724,-2.13558 4.93876,-1.42272 9.17573,-3.68784 12.71844,-6.79463 3.51267,-3.12297 6.27102,-7.19643 8.26379,-12.23618 1.97026,-5.02319 2.95351,-11.08687 2.95351,-18.16695 l 0,-73.524075 -30.0679,0 0,62.2651173 c 0,3.6803117 -0.15012,7.1418277 -0.43159,10.4060177 -0.28522,3.25666 -1.06206,6.1002 -2.33052,8.51106 -1.27222,2.39618 -3.1374,4.31146 -5.61053,5.72966 -2.46563,1.41819 -5.82818,2.13746 -10.05766,2.13746 -4.24448,0 -7.66333,-0.83111 -10.27158,-2.46094 -2.63075,-1.61515 -4.6648,-3.75261 -6.14718,-6.35779 -1.48988,-2.63305 -2.47313,-5.61066 -2.96851,-8.94074 -0.49538,-3.32332 -0.7318,-6.6933257 -0.7318,-10.0881867 l 0,-61.2016583 -30.07917,0 0,61.6339713 c 0,3.24197 -0.0788,6.4651137 -0.22517,9.6558737 -0.1351,3.19188 -0.73555,6.14877 -1.80137,8.83492 -1.04704,2.68576 -2.8184,4.84846 -5.29528,6.46361 -2.46188,1.62983 -6.0984,2.46094 -10.89643,2.46094 -1.42046,0 -3.28375,-0.32084 -5.61014,-0.94747 -2.33091,-0.65299 -4.59727,-1.86219 -6.7803,-3.62157 -2.19879,-1.77707 -4.06209,-4.34685 -5.62028,-7.65811 -1.54805,-3.32596 -2.3264,-7.68146 -2.3264,-13.0785967 l 0,-63.7435683 -30.07878,0 0,109.863975 28.387,0"
           inkscape:connector-curvature="0" />
        <path
           id="path3028"
           style="fill:#2e2d2f;fill-opacity:1;fill-rule:nonzero;stroke:none"
           d="m 556.49275,-4.7273717 c -1.89894,-0.623616 -3.95926,-1.160618 -6.13967,-1.581257 -2.19167,-0.445493 -4.48092,-0.789686 -6.88274,-1.075133 -2.39433,-0.276786 -4.79991,-0.641315 -7.20175,-1.051787 -2.26296,-0.426664 -4.48466,-1.0017 -6.66882,-1.6976193 -2.19542,-0.725291 -4.11313,-1.666739 -5.72686,-2.871416 -1.62123,-1.22087 -2.92723,-2.737731 -3.91423,-4.585229 -1.00202,-1.829798 -1.49365,-4.164212 -1.49365,-7.002114 0,-2.694801 0.49163,-4.967457 1.49365,-6.795749 0.987,-1.858042 2.33052,-3.298081 4.01931,-4.369073 1.71131,-1.05781 3.68156,-1.804943 5.922,-2.231608 2.26298,-0.432312 4.60477,-0.631147 7.00659,-0.631147 5.92578,0 10.50426,0.988521 13.75424,2.965561 3.26499,1.981561 5.6593,4.372085 7.21674,7.127139 1.54618,2.749406 2.49565,5.554545 2.84841,8.398094 0.34902,2.821331 0.52916,5.089844 0.52916,6.800644 l 0,11.2811843 c -1.2572,-1.151956 -2.85217,-2.033151 -4.76238,-2.68049 z M 497.07374,37.883699 c 3.11488,4.69105 7.06664,8.43161 11.86279,11.27515 4.80367,2.83339 10.20778,4.85147 16.2086,6.05313 5.99331,1.20205 12.03166,1.81965 18.11504,1.81965 5.5167,0 11.07844,-0.40445 16.73776,-1.16325 5.63679,-0.79158 10.79698,-2.32576 15.45802,-4.59692 4.64979,-2.25383 8.47395,-5.40767 11.4237,-9.44687 2.97977,-4.03805 4.46216,-9.39262 4.46216,-16.04452 l 0,-57.167745 c 0,-4.974988 0.28896,-9.713109 0.84438,-14.248252 0.56293,-4.541169 1.55368,-7.933395 2.95726,-10.189858 l -30.49574,0 c -0.56667,1.67992 -1.02827,3.421599 -1.36978,5.194158 -0.36779,1.766533 -0.60422,3.583528 -0.74307,5.413327 -4.80366,-4.958796 -10.46297,-8.431986 -16.95542,-10.403002 -6.48869,-1.979979 -13.1275,-2.968499 -19.89014,-2.968499 -5.24275,0 -10.11396,0.628134 -14.62865,1.899089 -4.5222,1.279918 -8.47396,3.253947 -11.85153,5.951759 -3.39634,2.70497 -6.03834,6.08552 -7.9448,10.2117 -1.91396,4.083626 -2.85969,8.990829 -2.85969,14.64253 0,6.248955 1.07708,11.385497 3.2725,15.428075 2.19543,4.0260093 5.00631,7.2578113 8.47771,9.67469725 3.46389,2.40935405 7.4044,4.21166305 11.85528,5.41031305 4.45089,1.202042 8.93556,2.168344 13.45775,2.871417 4.51469,0.709099 8.96183,1.270955 13.34517,1.700633 4.36833,0.4266619 8.26755,1.0709917 11.64511,1.9077577 3.38884,0.84428 6.07588,2.09904 8.04614,3.72925 1.97025,1.61515 2.89721,3.99362 2.75084,7.10795 0,3.26268 -0.52916,5.85428 -1.57994,7.77559 -1.06207,1.90211 -2.46564,3.39788 -4.24449,4.44966 -1.7601,1.05782 -3.8054,1.7801 -6.13217,2.12731 -2.33803,0.35888 -4.8487,0.537 -7.51698,0.537 -5.92577,0 -10.59057,-1.28866 -13.97939,-3.82493 -3.40761,-2.55508 -5.37409,-6.80327 -5.94079,-12.75661 l -30.0754,0 c 0.41657,7.07555 2.18416,12.97014 5.28777,17.63031"
           inkscape:connector-curvature="0" />
        <path
           id="path3030"
           style="fill:#2e2d2f;fill-opacity:1;fill-rule:nonzero;stroke:none"
           d="m 667.18332,-33.101488 c 3.31377,1.996246 6.00083,4.574684 8.04238,7.766947 2.04531,3.181718 3.49767,6.900437 4.34956,11.156159 0.83689,4.2481913 1.26471,8.5758393 1.26471,12.9697663 0,4.383759 -0.45409,8.708394 -1.36979,12.9611047 -0.91945,4.24819 -2.4281,8.02754 -4.55972,11.36969 -2.11286,3.32593 -4.84493,6.02526 -8.1437,8.07121 -3.32879,2.055 -7.38939,3.08494 -12.18178,3.08494 -4.95003,0 -9.07817,-1.02994 -12.39569,-3.08494 -3.31378,-2.04595 -6.00083,-4.70422 -8.04613,-7.9624 -2.04532,-3.26004 -3.49768,-7.01679 -4.34957,-11.27854 -0.83689,-4.2553427 -1.26846,-8.6259207 -1.26846,-13.1610647 0,-4.393927 0.46911,-8.721575 1.37729,-12.9697663 0.9157,-4.255722 2.40183,-7.974441 4.4509,-11.156159 2.04154,-3.192263 4.77363,-5.770701 8.15121,-7.766947 3.38508,-1.974028 7.4832,-2.981755 12.29061,-2.981755 4.935,0 9.07066,1.007727 12.38818,2.981755 z m -39.07851,87.139677 0,-14.01703 0.42032,0 c 3.66279,5.94581 8.33509,10.2791 13.9794,12.9596 5.64053,2.69932 11.85902,4.05087 18.64044,4.05087 8.61657,0 16.0172,-1.63135 22.2432,-4.9042 6.21473,-3.24498 11.36741,-7.57264 15.45803,-12.95658 4.10562,-5.38848 7.14168,-11.66831 9.11569,-18.81126 1.97025,-7.15238 2.9535,-14.6323687 2.9535,-22.4064707 0,-7.390367 -0.98325,-14.4704333 -2.9535,-21.2740913 -1.97401,-6.795748 -4.98005,-12.824029 -9.01062,-18.075802 -4.02307,-5.239723 -9.03689,-9.403938 -15.03395,-12.529921 -6.00832,-3.131784 -13.02617,-4.663106 -21.07606,-4.663106 -6.7739,0 -13.02616,1.362162 -18.74928,4.126103 -5.71185,2.765598 -10.41418,6.841692 -14.08448,12.224138 l -0.4128,0 0,-52.075258 -30.07917,0 0,148.353008 28.58928,0"
           inkscape:connector-curvature="0" />
        <path
           id="path3032"
           style="fill:#2e2d2f;fill-opacity:1;fill-rule:nonzero;stroke:none"
           d="m 743.64407,-28.526804 c 1.34727,-2.343075 3.07734,-4.251202 5.17895,-5.736809 2.13161,-1.493136 4.57098,-2.578813 7.32933,-3.298079 2.75458,-0.709099 5.61052,-1.057812 8.57152,-1.057812 2.12787,0 4.34582,0.242893 6.66883,0.735836 2.32677,0.495578 4.44714,1.282628 6.3536,2.35362 1.9102,1.052916 3.50141,2.469607 4.77738,4.24819 1.26097,1.763521 1.89145,3.99513 1.89145,6.689931 0,4.535144 -2.99854,7.943563 -8.99937,10.197389 -6.00456,2.268137 -14.36968,4.5276123 -25.09536,6.7957483 -4.37959,0.996054 -8.65409,2.184537 -12.81601,3.518757 -4.16567,1.348907 -7.8735,3.11280395 -11.11222,5.306002 -3.24997,2.203742 -5.87698,4.955782 -7.84347,8.294908 -1.98526,3.3259517 -2.96476,7.3994117 -2.96476,12.2256417 0,7.08008 1.37355,12.89219 4.12439,17.42433 2.7546,4.53063 6.39113,8.10813 10.90206,10.72497 4.52595,2.63305 9.61482,4.46623 15.27038,5.5327 5.63679,1.06347 11.4237,1.60311 17.36073,1.60311 5.93326,0 11.67888,-0.57354 17.25189,-1.71193 5.5805,-1.13427 10.56805,-3.0424 14.95138,-5.73418 4.36083,-2.69631 8.01611,-6.27683 10.90206,-10.73853 2.88971,-4.46284 4.61976,-10.08969 5.1902,-16.90162 l -28.58928,0 c -0.42407,5.80722 -2.61949,9.75263 -6.57126,11.81516 -3.96677,2.04596 -8.61655,3.0744 -13.97939,3.0744 -1.6963,0 -3.5352,-0.10017 -5.51294,-0.32688 -1.97776,-0.21012 -3.77163,-0.67934 -5.40037,-1.37678 -1.62124,-0.70607 -3.00604,-1.73564 -4.12814,-3.07287 -1.14462,-1.36209 -1.68505,-3.15385 -1.68505,-5.43818 0,-2.68615 0.97575,-4.8737 2.93849,-6.5875 2.00404,-1.69462 4.57099,-3.08456 7.75341,-4.13786 3.15991,-1.05744 6.80018,-2.00641 10.89456,-2.87142 4.09812,-0.85747 8.26754,-1.76351 12.51577,-2.752036 4.36083,-1.0077297 8.63158,-2.2097677 12.80852,-3.6245757 4.15066,-1.415185 7.8735,-3.283394 11.11597,-5.6370161 3.23495,-2.337427 5.8582,-5.23671 7.83971,-8.7114059 1.97026,-3.4671653 2.97227,-7.7477423 2.97227,-12.8477543 0,-7.229945 -1.45986,-13.296637 -4.35332,-18.175973 -2.89345,-4.889505 -6.66133,-8.818733 -11.31487,-11.792956 -4.67982,-2.981754 -10.00887,-5.078171 -16.00969,-6.28571 -5.99332,-1.201814 -12.11047,-1.785814 -18.32146,-1.785814 -6.34609,0 -12.56457,0.628134 -18.62919,1.899089 -6.07964,1.279918 -11.48375,3.400812 -16.21611,6.385579 -4.7286,2.974599 -8.6128,6.906463 -11.64511,11.779775 -3.04358,4.892894 -4.69484,11.022475 -4.97629,18.396649 l 28.59678,0 c 0,-3.261176 0.66051,-6.047487 2.00403,-8.398094"
           inkscape:connector-curvature="0" />
        <path
           id="path3034"
           style="fill:#ea3425;fill-opacity:1;fill-rule:nonzero;stroke:none"
           d="m 516.43474,248.6856 c 0,-12.04903 -10.28283,-19.87924 -22.04054,-23.54224 l -54.25132,-18.46103 -54.21755,18.46103 c -11.18352,3.95861 -22.03266,11.49321 -22.03266,23.54224 l 0,30.35718 -48.48956,16.52618 c -11.15763,3.92771 -22.02478,11.46307 -22.02478,23.52868 l 0,107.55102 c 0,12.0656 9.85576,21.83407 22.02478,21.83407 l 108.48614,0 c 12.16677,0 22.05179,-9.76847 22.05179,-21.83407 l 0,-48.59002 48.45316,0 c 12.17428,0 22.04054,-9.7647 22.04054,-21.84536 l 0,-107.52768 z M 404.90728,539.08768 c -112.76627,0 -204.14387,-91.71587 -204.14387,-204.86663 0,-113.13757 91.3776,-204.84479 204.14387,-204.84479 112.76216,0 204.13676,91.70722 204.13676,204.84479 0,113.15076 -91.3746,204.86663 -204.13676,204.86663"
           inkscape:connector-curvature="0" />
        <path
           id="path3036"
           style="fill:none;stroke:#ea3425;stroke-width:12;stroke-linecap:butt;stroke-linejoin:miter;stroke-miterlimit:10;stroke-opacity:1;stroke-dasharray:none"
           d="m 385.92532,378.05864 60.01572,0 0,48.59001 c 0,12.0656 -9.88503,21.83407 -22.05181,21.83407 l -108.48612,0 c -12.16903,0 -22.02478,-9.76847 -22.02478,-21.83407 l 0,-107.55103 c 0,-12.06559 10.86714,-19.60094 22.02478,-23.52868 l 48.48955,-16.52617 0,77.1705 c 0,12.08066 9.8584,21.84537 22.03266,21.84537 z"
           inkscape:connector-curvature="0" />
        <path
           id="path3038"
           style="fill:none;stroke:#ea3425;stroke-width:12;stroke-linecap:butt;stroke-linejoin:miter;stroke-miterlimit:10;stroke-opacity:1;stroke-dasharray:none"
           d="m 363.89266,279.04277 0,-30.35717 c 0,-12.04904 10.84915,-19.58364 22.03266,-23.54224 l 54.21755,-18.46103 54.25133,18.46103 c 11.7577,3.66299 22.04053,11.4932 22.04053,23.54224 l 0,107.52767 c 0,12.08066 -9.86627,21.84537 -22.04053,21.84537 l -48.45316,0"
           inkscape:connector-curvature="0" />
      </g>
    </g>
  </g>
</svg>
