<?xml version="1.0" encoding="UTF-8" standalone="no"?>
<!-- Created with Inkscape (http://www.inkscape.org/) -->

<svg
   xmlns:dc="http://purl.org/dc/elements/1.1/"
   xmlns:cc="http://creativecommons.org/ns#"
   xmlns:rdf="http://www.w3.org/1999/02/22-rdf-syntax-ns#"
   xmlns:svg="http://www.w3.org/2000/svg"
   xmlns="http://www.w3.org/2000/svg"
   xmlns:sodipodi="http://sodipodi.sourceforge.net/DTD/sodipodi-0.dtd"
   xmlns:inkscape="http://www.inkscape.org/namespaces/inkscape"
   id="svg3875"
   version="1.1"
   inkscape:version="0.48.2 r9819"
   width="512"
   height="512"
   xml:space="preserve"
   sodipodi:docname="gplus_icon.svg"
   inkscape:export-filename="/Users/sslater/Development/IdeaProjects/Citymaps/citymaps/src/main/res/drawable-xxxhdpi/gplus_inverse_icon.png"
   inkscape:export-xdpi="14.06"
   inkscape:export-ydpi="14.06"><metadata
     id="metadata3881"><rdf:RDF><cc:Work
         rdf:about=""><dc:format>image/svg+xml</dc:format><dc:type
           rdf:resource="http://purl.org/dc/dcmitype/StillImage" /><dc:title></dc:title></cc:Work></rdf:RDF></metadata><defs
     id="defs3879"><clipPath
       clipPathUnits="userSpaceOnUse"
       id="clipPath3893"><path
         d="M 0,25 25,25 25,0 0,0 0,25 z"
         id="path3895"
         inkscape:connector-curvature="0" /></clipPath></defs><sodipodi:namedview
     pagecolor="#ffffff"
     bordercolor="#666666"
     borderopacity="1"
     objecttolerance="10"
     gridtolerance="10"
     guidetolerance="10"
     inkscape:pageopacity="0"
     inkscape:pageshadow="2"
     inkscape:window-width="1575"
     inkscape:window-height="1139"
     id="namedview3877"
     showgrid="false"
     inkscape:zoom="1"
     inkscape:cx="-53.493114"
     inkscape:cy="175.625"
     inkscape:window-x="0"
     inkscape:window-y="0"
     inkscape:window-maximized="0"
     inkscape:current-layer="g3883" /><g
     id="g3883"
     inkscape:groupmode="layer"
     inkscape:label="google-plus-vector"
     transform="matrix(1.25,0,0,-1.25,0,512)"><g
       id="g3885"
       transform="matrix(26.885285,0,0,26.885285,409.6,323.41787)"
       style="fill:#dd4b39;fill-opacity:1"><path
         d="m 0,0 -2,0 0,2 -1,0 0,-2 -2,0 0,-1 2,0 0,-2 1,0 0,2 2,0 0,1 z"
         style="fill:#dd4b39;fill-opacity:1;fill-rule:nonzero;stroke:none"
         id="path3887"
         inkscape:connector-curvature="0" /></g><g
       id="g3889"
       transform="matrix(26.885285,0,0,26.885285,-154.99098,-133.63197)"
       style="fill:#dd4b39;fill-opacity:1"><g
         id="g3891"
         clip-path="url(#clipPath3893)"
         style="fill:#dd4b39;fill-opacity:1"><g
           id="g3897"
           transform="translate(10.3779,5.8955)"
           style="fill:#dd4b39;fill-opacity:1"><path
             d="m 0,0 c -1.733,0 -2.984,1.098 -2.984,2.416 0,1.291 1.552,2.367 3.285,2.348 C 0.706,4.76 1.083,4.693 1.425,4.584 2.365,3.93 3.04,3.561 3.23,2.814 3.266,2.664 3.286,2.508 3.286,2.348 3.286,1.031 2.437,0 0,0 m 0.456,7.731 c -1.164,0.034 -2.269,1.301 -2.47,2.829 -0.201,1.527 0.579,2.696 1.742,2.662 1.163,-0.035 2.269,-1.261 2.47,-2.788 C 2.398,8.906 1.619,7.695 0.456,7.731 M 2.868,5.467 C 2.46,5.756 1.68,6.46 1.68,6.873 c 0,0.483 0.137,0.722 0.867,1.292 0.746,0.583 1.274,1.391 1.274,2.344 0,1.137 -0.507,1.595 -1.456,2.595 l 1.433,0 1.01,1 -4.515,0 c -2.025,0 -3.93,-1.655 -3.93,-3.432 0,-1.816 1.38,-3.34 3.44,-3.34 0.143,0 0.282,-0.028 0.418,-0.019 -0.134,-0.255 -0.229,-0.558 -0.229,-0.859 0,-0.504 0.271,-0.923 0.614,-1.255 -0.259,0 -0.509,-0.012 -0.782,-0.012 -2.508,0 -4.437,-1.597 -4.437,-3.253 0,-1.631 2.115,-2.653 4.622,-2.653 2.859,0 4.438,1.621 4.438,3.252 0,1.307 -0.386,2.09 -1.579,2.934"
             style="fill:#dd4b39;fill-opacity:1;fill-rule:nonzero;stroke:none"
             id="path3899"
             inkscape:connector-curvature="0" /></g></g></g></g></svg>