<?xml version="1.0" encoding="UTF-8" standalone="no"?>
<!-- Created with Inkscape (http://www.inkscape.org/) -->

<svg
   xmlns:dc="http://purl.org/dc/elements/1.1/"
   xmlns:cc="http://creativecommons.org/ns#"
   xmlns:rdf="http://www.w3.org/1999/02/22-rdf-syntax-ns#"
   xmlns:svg="http://www.w3.org/2000/svg"
   xmlns="http://www.w3.org/2000/svg"
   xmlns:sodipodi="http://sodipodi.sourceforge.net/DTD/sodipodi-0.dtd"
   xmlns:inkscape="http://www.inkscape.org/namespaces/inkscape"
   width="96"
   height="96"
   id="svg3753"
   version="1.1"
   inkscape:version="0.48.2 r9819"
   sodipodi:docname="ic_action_explore_compass_rose.svg"
   inkscape:export-filename="/Users/sslater/Development/IdeaProjectsNew/Citymaps/citymaps/src/main/res/drawable-xxxhdpi/ic_explore_white_24dp.png"
   inkscape:export-xdpi="90"
   inkscape:export-ydpi="90">
  <defs
     id="defs3755" />
  <sodipodi:namedview
     id="base"
     pagecolor="#000000"
     bordercolor="#666666"
     borderopacity="1.0"
     inkscape:pageopacity="0"
     inkscape:pageshadow="2"
     inkscape:zoom="6.5163827"
     inkscape:cx="21.506333"
     inkscape:cy="47.345129"
     inkscape:document-units="px"
     inkscape:current-layer="layer1"
     showgrid="false"
     inkscape:window-width="1198"
     inkscape:window-height="1014"
     inkscape:window-x="118"
     inkscape:window-y="145"
     inkscape:window-maximized="0" />
  <metadata
     id="metadata3758">
    <rdf:RDF>
      <cc:Work
         rdf:about="">
        <dc:format>image/svg+xml</dc:format>
        <dc:type
           rdf:resource="http://purl.org/dc/dcmitype/StillImage" />
        <dc:title></dc:title>
      </cc:Work>
    </rdf:RDF>
  </metadata>
  <g
     inkscape:label="Layer 1"
     inkscape:groupmode="layer"
     id="layer1"
     transform="translate(0,-956.36218)">
    <path
       style="fill:#ffffff;fill-opacity:1;stroke:#ffffff;stroke-width:1.99999988000000006;stroke-linejoin:round;stroke-miterlimit:4;stroke-opacity:1;stroke-dasharray:none"
       d="M 47.84375 13 L 39.3125 32.71875 L 26.15625 26.25 L 32.65625 39.34375 L 13 47.84375 L 32.53125 56.34375 L 26.03125 69.59375 L 39.3125 62.96875 L 47.84375 83 L 56.375 62.96875 L 69.6875 69.59375 L 63.03125 56.21875 L 83 47.84375 L 63.1875 39.34375 L 69.96875 26.09375 L 56.25 32.71875 L 47.84375 13 z M 48 38 C 53.522847 38 58 42.477153 58 48 C 58 53.522847 53.522847 58 48 58 C 42.477153 58 38 53.522847 38 48 C 38 42.477153 42.477153 38 48 38 z "
       id="path4336"
       transform="translate(0,956.36218)" />
  </g>
</svg>
