<?xml version="1.0" encoding="UTF-8" standalone="no"?>
<svg
   xmlns:dc="http://purl.org/dc/elements/1.1/"
   xmlns:cc="http://creativecommons.org/ns#"
   xmlns:rdf="http://www.w3.org/1999/02/22-rdf-syntax-ns#"
   xmlns:svg="http://www.w3.org/2000/svg"
   xmlns="http://www.w3.org/2000/svg"
   xmlns:sodipodi="http://sodipodi.sourceforge.net/DTD/sodipodi-0.dtd"
   xmlns:inkscape="http://www.inkscape.org/namespaces/inkscape"
   enable-background="new 0 0 64 64"
   height="96"
   id="Layer_1"
   version="1.1"
   viewBox="0 0 96 96"
   width="96"
   xml:space="preserve"
   inkscape:version="0.48.1 r9760"
   sodipodi:docname="ic_log_on_off.svg"
   inkscape:export-filename="/Users/slaterama/Documents/Development/Idea/Citymaps/citymaps/src/main/res/drawable-xxxhdpi/ic_log_on_off_gray600_24dp.png"
   inkscape:export-xdpi="90"
   inkscape:export-ydpi="90"><metadata
     id="metadata9"><rdf:RDF><cc:Work
         rdf:about=""><dc:format>image/svg+xml</dc:format><dc:type
           rdf:resource="http://purl.org/dc/dcmitype/StillImage" /><dc:title></dc:title></cc:Work></rdf:RDF></metadata><defs
     id="defs7" /><sodipodi:namedview
     pagecolor="#ffffff"
     bordercolor="#666666"
     borderopacity="1"
     objecttolerance="10"
     gridtolerance="10"
     guidetolerance="10"
     inkscape:pageopacity="0"
     inkscape:pageshadow="2"
     inkscape:window-width="1070"
     inkscape:window-height="638"
     id="namedview5"
     showgrid="false"
     inkscape:zoom="4.09375"
     inkscape:cx="47.145038"
     inkscape:cy="46.81019"
     inkscape:window-x="0"
     inkscape:window-y="0"
     inkscape:window-maximized="0"
     inkscape:current-layer="Layer_1" /><path
     d="M 88,48 C 88,25.944091 70.055909,8 48,8 25.944091,8 8,25.944091 8,48 8,70.055909 25.944091,88 48,88 70.055909,88 88,70.055909 88,48 z M 51.926529,47.93878 c 0,2.09619 -1.69822,3.796021 -3.79602,3.796021 -2.09619,0 -3.796021,-1.699831 -3.796021,-3.796021 V 28.19657 c 0,-2.096189 1.699831,-3.79602 3.796021,-3.79602 2.096189,0 3.79602,1.69822 3.79602,3.79602 v 19.742205 z m 21.902843,0.127286 c 0,14.241522 -11.58624,25.827762 -25.829372,25.827762 -14.243132,0 -25.829372,-11.58624 -25.829372,-25.827762 0,-6.904052 2.689115,-13.394022 7.574316,-18.271167 0.741159,-0.741158 1.71111,-1.110127 2.682673,-1.110127 0.971561,0 1.944734,0.37058 2.685893,1.113349 1.482317,1.483929 1.480706,3.886249 -0.0032,5.368565 -3.446387,3.444776 -5.346009,8.025458 -5.346009,12.89938 0,10.053976 8.180134,18.234109 18.235721,18.234109 10.055587,0 18.235721,-8.180133 18.235721,-18.234109 0,-4.8707 -1.894788,-9.449771 -5.339563,-12.894546 -1.482318,-1.483928 -1.480707,-3.886248 0.0017,-5.370176 1.483928,-1.483929 3.886248,-1.480706 5.370176,0.0016 4.875534,4.878755 7.561428,11.365503 7.561428,18.263111 z"
     id="path3"
     inkscape:connector-curvature="0"
     style="fill:#757575;fill-opacity:1" /></svg>