<?xml version="1.0" encoding="UTF-8" standalone="no"?>
<svg
   xmlns:dc="http://purl.org/dc/elements/1.1/"
   xmlns:cc="http://creativecommons.org/ns#"
   xmlns:rdf="http://www.w3.org/1999/02/22-rdf-syntax-ns#"
   xmlns:svg="http://www.w3.org/2000/svg"
   xmlns="http://www.w3.org/2000/svg"
   xmlns:sodipodi="http://sodipodi.sourceforge.net/DTD/sodipodi-0.dtd"
   xmlns:inkscape="http://www.inkscape.org/namespaces/inkscape"
   width="48"
   height="48"
   viewBox="0 0 48 48"
   id="svg2"
   version="1.1"
   inkscape:version="0.48.5 r10040"
   sodipodi:docname="ic_image_48px.svg">
  <metadata
     id="metadata12">
    <rdf:RDF>
      <cc:Work
         rdf:about="">
        <dc:format>image/svg+xml</dc:format>
        <dc:type
           rdf:resource="http://purl.org/dc/dcmitype/StillImage" />
        <dc:title></dc:title>
      </cc:Work>
    </rdf:RDF>
  </metadata>
  <defs
     id="defs10" />
  <sodipodi:namedview
     pagecolor="#ffffff"
     bordercolor="#666666"
     borderopacity="1"
     objecttolerance="10"
     gridtolerance="10"
     guidetolerance="10"
     inkscape:pageopacity="0"
     inkscape:pageshadow="2"
     inkscape:window-width="1132"
     inkscape:window-height="813"
     id="namedview8"
     showgrid="false"
     inkscape:zoom="2.2982052"
     inkscape:cx="8.7109345"
     inkscape:cy="36.932212"
     inkscape:window-x="0"
     inkscape:window-y="0"
     inkscape:window-maximized="0"
     inkscape:current-layer="svg2" />
  <path
     d="M0 0h48v48h-48z"
     fill="none"
     id="path4" />
  <path
     d="M 11.78125 6 L 42 36.25 L 42 10 C 42 7.79 40.21 6 38 6 L 11.78125 6 z M 7.5 6.875 C 6.5812805 7.607753 6 8.7328328 6 10 L 6 38 C 6 40.21 7.79 42 10 42 L 38 42 C 39.260096 42 40.360695 41.40992 41.09375 40.5 L 36.59375 36 L 10 36 L 17 27 L 22 33 L 27.0625 26.46875 L 7.5 6.875 z "
     id="path6" />
  <path
     style="fill:#000000;fill-opacity:1;stroke:none"
     d="M 6.57316,5.9472964 3.991,8.529456 39.43701,44.009 42.019169,41.42684 z"
     id="path2989"
     inkscape:connector-curvature="0" />
</svg>
